HIERARCHY
ROOT SimulationBone
{
	OFFSET 0.000000 0.000000 0.000000
	CHANNELS 6 Xposition Yposition Zposition Zrotation Yrotation Xrotation 
	JOINT Hips
	{
		OFFSET 0.000000 0.000000 0.000000
		CHANNELS 6 Xposition Yposition Zposition Zrotation Yrotation Xrotation 
		JOINT LeftUpLeg
		{
			OFFSET 0.103459 1.857826 10.548510
			CHANNELS 3 Zrotation Yrotation Xrotation
			JOINT LeftLeg
			{
				OFFSET 43.500000 -0.000023 0.000004
				CHANNELS 3 Zrotation Yrotation Xrotation
				JOINT LeftFoot
				{
					OFFSET 42.372200 0.000015 0.000002
					CHANNELS 3 Zrotation Yrotation Xrotation
					JOINT LeftToe
					{
						OFFSET 17.299997 -0.000001 -0.000010
						CHANNELS 3 Zrotation Yrotation Xrotation
						End Site
						{
							OFFSET 0.000000 0.000000 0.000000
						}
					}
				}
			}
		}
		JOINT RightUpLeg
		{
			OFFSET 0.103462 1.857828 -10.548512
			CHANNELS 3 Zrotation Yrotation Xrotation
			JOINT RightLeg
			{
				OFFSET 43.500046 -0.000019 0.000004
				CHANNELS 3 Zrotation Yrotation Xrotation
				JOINT RightFoot
				{
					OFFSET 42.372265 -0.000008 0.000019
					CHANNELS 3 Zrotation Yrotation Xrotation
					JOINT RightToe
					{
						OFFSET 17.299994 -0.000005 -0.000002
						CHANNELS 3 Zrotation Yrotation Xrotation
						End Site
						{
							OFFSET 0.000000 0.000000 0.000000
						}
					}
				}
			}
		}
		JOINT Spine
		{
			OFFSET 6.901970 -2.603727 0.000005
			CHANNELS 3 Zrotation Yrotation Xrotation
			JOINT Spine1
			{
				OFFSET 12.588102 0.000001 -0.000000
				CHANNELS 3 Zrotation Yrotation Xrotation
				JOINT Spine2
				{
					OFFSET 12.343201 -0.000005 -0.000002
					CHANNELS 3 Zrotation Yrotation Xrotation
					JOINT Neck
					{
						OFFSET 25.832886 -0.000002 0.000004
						CHANNELS 3 Zrotation Yrotation Xrotation
						JOINT Head
						{
							OFFSET 11.766621 0.000007 -0.000003
							CHANNELS 3 Zrotation Yrotation Xrotation
							End Site
							{
								OFFSET 0.000000 0.000000 0.000000
							}
						}
					}
					JOINT LeftShoulder
					{
						OFFSET 19.745899 -1.480368 6.000106
						CHANNELS 3 Zrotation Yrotation Xrotation
						JOINT LeftArm
						{
							OFFSET 11.284125 -0.000008 -0.000024
							CHANNELS 3 Zrotation Yrotation Xrotation
							JOINT LeftForeArm
							{
								OFFSET 33.000053 0.000001 0.000031
								CHANNELS 3 Zrotation Yrotation Xrotation
								JOINT LeftHand
								{
									OFFSET 25.200008 0.000018 0.000007
									CHANNELS 3 Zrotation Yrotation Xrotation
									End Site
									{
										OFFSET 0.000000 0.000000 0.000000
									}
								}
							}
						}
					}
					JOINT RightShoulder
					{
						OFFSET 19.746098 -1.480373 -6.000077
						CHANNELS 3 Zrotation Yrotation Xrotation
						JOINT RightArm
						{
							OFFSET 11.284138 -0.000021 -0.000000
							CHANNELS 3 Zrotation Yrotation Xrotation
							JOINT RightForeArm
							{
								OFFSET 33.000088 0.000017 0.000003
								CHANNELS 3 Zrotation Yrotation Xrotation
								JOINT RightHand
								{
									OFFSET 25.199770 0.000141 0.000423
									CHANNELS 3 Zrotation Yrotation Xrotation
									End Site
									{
										OFFSET 0.000000 0.000000 0.000000
									}
								}
							}
						}
					}
				}
			}
		}
	}
}
MOTION
Frames: 11
Frame Time: 0.016667
335.509252 0.000000 -137.481839 0.000000 178.569030 0.000000 -0.979978 91.710777 0.191695 91.806872 -2.114960 177.028237 171.226367 0.011994 175.604341 -16.211300 -1.901108 -5.734214 78.524696 3.592303 -1.945085 21.454557 0.003109 0.000018 -165.490935 6.672806 -176.770186 -18.902601 2.726587 -3.848282 81.123132 3.712567 4.631856 21.454548 -0.003093 0.000001 7.996316 -1.624232 1.432365 5.941922 -3.319431 2.780939 5.623670 -3.302720 2.800929 18.054978 -5.520748 0.913192 -14.079137 6.659638 -1.265547 171.246939 -71.320388 7.659061 -1.367183 47.544430 48.726425 -25.138396 -14.538397 1.140463 8.749733 -1.109733 7.148209 -174.004901 79.763141 7.620149 -27.334722 -58.928589 -27.434571 -42.334656 19.364778 -1.806796 -0.836682 11.664626 -5.125862 
336.597188 0.000000 -137.830301 0.000000 178.738611 0.000000 -1.069240 91.593448 0.068170 91.714071 -2.401421 177.020908 170.196774 0.149189 175.612092 -16.447572 -1.777956 -5.697557 77.840562 3.518829 -2.107196 21.454557 0.003109 0.000018 -165.299019 6.479311 -177.605117 -17.320820 2.763051 -3.138001 82.446567 3.055306 4.228674 21.454553 -0.003092 0.000001 8.032471 -1.623276 1.441776 6.014023 -3.318854 2.798736 5.695763 -3.302035 2.818722 18.002049 -5.947656 0.927488 -13.931124 6.815342 -1.295613 171.632444 -71.450548 7.258763 -1.082637 47.839771 47.520957 -25.391366 -14.865035 1.165484 8.593811 -1.718269 5.567115 -174.441739 79.986584 7.178274 -28.090583 -58.594060 -27.174422 -42.347070 19.369666 -1.807444 -0.612503 11.305853 -5.378216 
337.689457 0.000000 -138.188248 0.000000 178.950141 0.000000 -1.176375 91.469673 -0.040296 91.679610 -2.611757 177.118464 169.192925 0.229507 175.645787 -16.686268 -1.624697 -5.595110 77.111612 3.388622 -2.297136 21.454558 0.003109 0.000017 -165.266454 6.206497 -178.328084 -16.215183 2.893903 -2.308652 83.694965 2.325550 3.790711 21.454557 -0.003092 0.000000 8.110679 -1.590080 1.426678 6.171658 -3.253572 2.767935 5.853394 -3.236940 2.787527 17.830945 -6.448919 0.908935 -13.951939 7.026303 -1.397220 171.927007 -71.513608 6.953982 -1.130157 48.165195 46.155644 -25.634689 -15.245027 1.193445 8.425525 -2.250740 4.120221 -174.905270 80.250700 6.710036 -28.803484 -58.222511 -26.868734 -42.417011 19.389481 -1.810752 -0.436946 11.015739 -5.510867 
338.781677 0.000000 -138.553192 0.000000 179.197459 0.000000 -1.280987 91.361106 -0.132820 91.708239 -2.687215 177.322666 168.268144 0.211293 175.648182 -16.870332 -1.407447 -5.385490 76.331890 3.175912 -2.497084 21.454559 0.003108 0.000017 -165.258450 5.815134 -178.593862 -15.250046 3.059799 -1.606719 84.666512 1.688036 3.259555 21.454554 -0.003092 -0.000000 8.225887 -1.511694 1.396626 6.404597 -3.097986 2.708694 6.086367 -3.081713 2.727345 17.582510 -6.894884 0.839906 -14.094953 7.146874 -1.536685 171.991786 -71.497058 6.887746 -1.463322 48.518152 44.706811 -25.906742 -15.656859 1.223857 8.480970 -2.810983 2.945087 -175.349245 80.533403 6.262249 -29.405877 -57.819283 -26.517296 -42.498839 19.387132 -1.812935 -0.460413 10.901191 -5.509262 
339.869878 0.000000 -138.922021 0.000000 179.472643 0.000000 -1.390862 91.250961 -0.206224 91.773706 -2.654571 177.665599 167.354374 0.118699 175.754346 -17.060363 -1.184246 -5.130867 75.503970 2.941642 -2.643831 21.454560 0.003107 0.000017 -165.297026 5.314697 -178.455877 -14.438697 3.221582 -1.064930 85.466498 1.168451 2.673605 21.454550 -0.003092 0.000000 8.362643 -1.393302 1.346634 6.681843 -2.861692 2.611596 6.363671 -2.846009 2.628821 17.368078 -7.241177 0.701577 -14.363521 7.170217 -1.724653 171.853036 -71.444575 7.031982 -2.074699 48.910485 43.289707 -26.133358 -16.050844 1.252929 8.649809 -3.519748 1.910377 -175.780873 80.766488 5.826827 -29.809714 -57.366613 -26.209107 -42.578360 19.358581 -1.813300 -0.620866 10.976683 -5.442358 
340.950052 0.000000 -139.292070 0.000000 179.767894 0.000000 -1.516410 91.119098 -0.260594 91.848992 -2.555560 178.167722 166.379675 -0.008114 176.079726 -17.322678 -1.013048 -4.892252 74.641253 2.742622 -2.694269 21.454560 0.003109 0.000017 -165.429004 4.731570 -178.085797 -13.852621 3.357056 -0.651418 86.243439 0.751206 2.092934 21.454550 -0.003092 0.000000 8.505740 -1.244046 1.272963 6.972715 -2.562231 2.469434 6.654598 -2.547413 2.484853 17.283280 -7.475815 0.480596 -14.756084 7.129871 -1.978519 171.541572 -71.400842 7.353857 -2.954930 49.359649 41.965207 -26.231161 -16.372955 1.275187 8.770283 -4.488745 0.885011 -176.169689 80.896681 5.433919 -29.962034 -56.858901 -26.026395 -42.641949 19.311562 -1.811983 -0.805101 11.219041 -5.365987 
342.018396 0.000000 -139.661496 0.000000 180.076865 0.000000 -1.649050 90.970413 -0.308902 91.933642 -2.405618 178.773067 165.379944 -0.150604 176.472636 -17.624799 -0.859835 -4.622165 73.795815 2.525551 -2.723587 21.454560 0.003110 0.000017 -165.643548 4.110306 -177.733612 -13.446276 3.489877 -0.285707 87.016322 0.389888 1.585392 21.454553 -0.003092 0.000000 8.651538 -1.070887 1.191581 7.269200 -2.214249 2.314089 6.951131 -2.200376 2.327409 17.290335 -7.632448 0.191498 -15.201511 7.083697 -2.299490 170.937982 -71.359682 7.975949 -4.050851 49.885665 40.536834 -26.194376 -16.579581 1.287552 8.797424 -5.750977 -0.000108 -176.313711 80.977213 5.288837 -29.956632 -56.358215 -25.949211 -42.646785 19.267880 -1.809286 -0.908338 11.546758 -5.195152 
343.071718 0.000000 -140.028561 0.000000 180.394931 0.000000 -1.776742 90.817001 -0.362026 92.033517 -2.211893 179.411003 164.420003 -0.308330 176.755560 -17.894692 -0.681952 -4.264724 73.015776 2.222452 -2.826830 21.454558 0.003109 0.000017 -165.912602 3.488501 -177.582610 -13.149246 3.643979 0.095236 87.759602 0.045163 1.192067 21.454553 -0.003092 0.000000 8.798682 -0.879792 1.120110 7.568049 -1.830732 2.180641 7.250018 -1.817670 2.191648 17.337861 -7.754821 -0.146524 -15.642812 7.083122 -2.685058 169.961449 -71.303602 8.981539 -5.330252 50.497731 38.823201 -26.026713 -16.643887 1.288843 8.725668 -7.298266 -0.689802 -176.094968 81.066833 5.511798 -29.882739 -55.917281 -25.948527 -42.554357 19.236569 -1.804745 -0.860580 11.887558 -4.845064 
344.107010 0.000000 -140.391146 0.000000 180.718986 0.000000 -1.894975 90.674713 -0.410256 92.141791 -1.974478 -179.967946 163.569466 -0.507294 176.916120 -18.003967 -0.495704 -3.837986 72.292128 1.825138 -3.066474 21.454557 0.003108 0.000017 -166.215017 2.864304 -177.470226 -12.911469 3.806913 0.432983 88.398124 -0.256352 0.842033 21.454553 -0.003092 0.000000 8.943054 -0.674644 1.063131 7.860980 -1.419759 2.078180 7.542984 -1.407322 2.086707 17.453983 -7.880232 -0.526570 -16.147073 7.126916 -3.130864 168.826060 -71.230701 10.150998 -6.859363 51.172377 36.983394 -25.691356 -16.595982 1.280221 8.630523 -9.036979 -1.703188 -175.891987 81.139656 5.718510 -29.678312 -55.486197 -26.046020 -42.372560 19.161551 -1.794519 -0.726945 12.265090 -4.378813 
345.121108 0.000000 -140.746768 0.000000 181.047475 0.000000 -1.999993 90.556484 -0.444198 92.249729 -1.701458 -179.401991 162.885625 -0.766202 176.993156 -17.841743 -0.340283 -3.384617 71.622212 1.346929 -3.491600 21.454556 0.003108 0.000018 -166.537176 2.234158 -177.211729 -12.690651 3.955092 0.672491 88.867448 -0.488756 0.465449 21.454555 -0.003092 -0.000000 9.079311 -0.461722 1.019937 8.137381 -0.993861 2.004970 7.819420 -0.981874 2.010926 17.654671 -8.012740 -0.935066 -16.743822 7.185356 -3.613580 167.751475 -71.141369 11.258995 -8.682608 51.875419 35.214279 -25.164743 -16.480435 1.264272 8.604567 -10.851647 -3.574611 -176.096319 81.155044 5.511492 -29.286990 -55.009381 -26.272039 -42.100779 18.996529 -1.775657 -0.584572 12.696396 -3.869693 
346.110616 0.000000 -141.092814 0.000000 181.380254 0.000000 -2.081010 90.459824 -0.476971 92.340323 -1.439969 -178.902522 162.372079 -1.052994 177.063994 -17.421972 -0.279577 -2.975555 71.082912 0.830265 -4.130216 21.454557 0.003108 0.000018 -166.870851 1.619507 -176.878185 -12.452755 4.055154 0.894012 89.194278 -0.699799 0.102839 21.454557 -0.003092 0.000000 9.199949 -0.258957 0.981789 8.382170 -0.588211 1.942258 8.064234 -0.576611 1.945766 17.825610 -8.032842 -1.317516 -17.188019 7.174219 -4.035375 166.701038 -71.010305 12.344013 -10.680508 52.551157 33.510980 -24.516242 -16.342928 1.245357 8.613872 -12.627839 -6.290329 -176.589582 81.094740 5.010530 -28.813811 -54.512452 -26.655036 -41.657360 18.799554 -1.750722 -0.422158 13.072359 -3.280729 
